<svg xmlns="http://www.w3.org/2000/svg" width="48" height="48" viewBox="0 0 256 256" fill="none">
  <rect width="256" height="256" fill="#242938" rx="60"/>
  <svg x="40" y="40" width="176" height="176" viewBox="0 0 512 512">
<path fill="#68bc71" fill-rule="evenodd" d="M505.8 58.8C428.2 18.4 334.1 0 256 0h-.3v511.8c-21.5-12.7-41.1-26-59.1-39.6c18 13.7 37.8 27 59.4 39.8C506.8 363.4 505.8 146 505.8 58.8"/><path fill="#67b279" fill-rule="evenodd" d="M255.7 511.8C5.2 363.3 6.2 146 6.2 58.8C83.7 18.4 177.7 0 255.7 0z"/><path fill="#fff" fill-rule="evenodd" d="m246.9 341.6l151-203.6c-11.1-8.9-20.8-2.6-26.1 2.2h-.2l-125.9 131l-47.4-57.1c-22.6-26.2-53.4-6.2-60.6-.9z"/>
  </svg>
</svg>