<svg xmlns="http://www.w3.org/2000/svg" width="48" height="48" viewBox="0 0 256 256" fill="none">
  <rect width="256" height="256" fill="#242938" rx="60"/>
  <!-- Brand mark from minderest.com logo (icon only, no wordmark) -->
  <g transform="translate(28, 18) scale(4.7)">
    <path fill-rule="evenodd" clip-rule="evenodd" d="M19.82 25.5347C20.5357 24.796 21.1246 24.5493 21.9472 24.5547C26.5515 24.5547 27.1297 29.4467 28.2046 34.2627C29.2596 38.9827 30.4854 43.8253 34.6464 45.8307C35.1658 46.0813 35.716 46.2107 36.2635 46.236C36.4384 46.244 36.5199 46.028 36.3796 45.924C35.3367 45.1453 34.2711 43.8507 33.6983 42.1853C31.3934 35.4853 34.9949 26.5613 30.8286 19.8867C29.9099 18.4147 27.4568 16 23.3092 16C16.5911 16.32 15.647 21.7893 16.0943 23.4053C16.2346 23.9093 16.6058 24.9187 16.555 25.476C16.5043 26.0333 15.7618 28.1147 16.5978 28.3893C17.443 28.668 17.837 27.5813 19.82 25.5347Z" fill="#003A70"/>
    <path fill-rule="evenodd" clip-rule="evenodd" d="M30.703 25.5347C31.4188 24.796 32.0077 24.5493 32.8302 24.5547C37.4345 24.5547 38.0127 29.4467 39.0877 34.2627C40.1426 38.9827 41.3685 43.8253 45.5294 45.8307C46.0489 46.0813 46.599 46.2107 47.1465 46.236C47.3215 46.244 47.4029 46.028 47.2627 45.924C46.2198 45.1453 45.1542 43.8507 44.5813 42.1853C42.2765 35.4853 45.8779 26.5613 41.7117 19.8867C40.7929 18.4147 38.3399 16 34.1923 16C27.4741 16.32 26.5301 21.7893 26.9774 23.4053C27.1176 23.9093 27.4888 24.9187 27.4381 25.476C27.3873 26.0333 26.6449 28.1147 27.4808 28.3893C28.3261 28.668 28.72 27.5813 30.703 25.5347Z" fill="#00A9E0"/>
    <path fill-rule="evenodd" clip-rule="evenodd" d="M41.5862 25.5347C42.302 24.796 42.8908 24.5493 43.7134 24.5547C48.3177 24.5547 48.8959 29.4467 49.9709 34.2627C51.0258 38.9827 52.2516 43.8253 56.4126 45.8307C56.932 46.0813 57.4822 46.2107 58.0297 46.236C58.2046 46.244 58.2861 46.028 58.1459 45.924C57.103 45.1453 56.0374 43.8507 55.4645 42.1853C53.1597 35.4853 56.7611 26.5613 52.5948 19.8867C51.6761 18.4147 49.2231 16 45.0755 16C38.3573 16.32 37.4132 21.7893 37.8606 23.4053C38.0008 23.9093 38.372 24.9187 38.3213 25.476C38.2705 26.0333 37.5281 28.1147 38.364 28.3893C39.2093 28.668 39.6032 27.5813 41.5862 25.5347Z" fill="#FFB81C"/>
  </g>
</svg>
