<svg xmlns="http://www.w3.org/2000/svg" width="256" height="256" viewBox="0 0 256 256"><linearGradient id="a" x1="-966.05481" x2="-965.05481" y1="129.9631" y2="129.9631" gradientTransform="matrix(185.45778 11.263809 49.693252 -42.037102 172718.51 16465.826)" gradientUnits="userSpaceOnUse"><stop offset="0" stop-color="#64e6ae"/><stop offset=".1" stop-color="#64e6ae"/><stop offset=".3" stop-color="#4ed4ff"/><stop offset=".7" stop-color="#f471b5"/><stop offset="1" stop-color="#f471b5"/></linearGradient><rect width="256" height="256" fill="#f4f2ed" rx="60"/><path fill="url(#a)" d="M80.490667 118.592c1.19468-6.80534-3.34933-12.352-10.13332-12.352h-30.72001l-2.176 12.352h30.719999l-.72533 4.11733H36.736004L32.000005 149.76h12.287999l2.581333-14.72001h18.432c6.784009 0 13.26933-5.54665 14.46401-12.35199zm36.117333 4.24533H83.946667l-1.92 10.32534h32.640003ZM129.74934 106.24H86.741335l-2.175989 12.37333h43.029334Zm-50.645344 43.52h43.029334l2.15467-12.37333H81.279997Zm67.029334-43.52c-6.69866 0-13.16265 5.65333-14.46399 12.37333l-.36269 2.06934h.0215c-.83215 6.57066 3.56252 12.15999 10.15451 12.15999h18.432l-.81066 4.54401h-30.72L126.20799 149.76h30.72c6.78401 0 13.26935-5.54667 14.46401-12.37333l.78933-4.54401c1.19466-6.82667-3.34934-12.37332-10.13334-12.37332h-18.432l.32001-1.85601h40.98132L179.456 149.76h12.33066l5.46133-31.14667h12.288c6.78401 0 13.26935-5.54666 14.46401-12.37333z" style="fill:url(#a);stroke-width:.213333"/></svg>